<svg xmlns="http://www.w3.org/2000/svg" viewBox="0 0 1600 720" role="img" aria-label="Two teen lawn care workers mowing and trimming a lawn">
  <defs>
    <linearGradient id="sky" x1="0" x2="1">
      <stop offset="0" stop-color="#071008"/>
      <stop offset=".45" stop-color="#1f351e"/>
      <stop offset="1" stop-color="#6b7d60"/>
    </linearGradient>
    <radialGradient id="vignette" cx=".56" cy=".5" r=".72">
      <stop offset=".25" stop-color="#ffffff" stop-opacity="0"/>
      <stop offset="1" stop-color="#000" stop-opacity=".62"/>
    </radialGradient>
  </defs>
  <rect width="1600" height="720" fill="url(#sky)"/>
  <g opacity=".55">
    <rect x="930" y="90" width="520" height="360" rx="12" fill="#d9d3c5"/>
    <polygon points="900,95 1190,0 1490,95" fill="#7d7b74"/>
    <rect x="1020" y="155" width="95" height="145" fill="#bfc8c0"/>
    <rect x="1230" y="150" width="120" height="160" fill="#bfc8c0"/>
    <rect x="850" y="390" width="620" height="50" fill="#74634d"/>
  </g>
  <g fill="#254317" opacity=".9">
    <ellipse cx="820" cy="590" rx="720" ry="180"/>
    <circle cx="1280" cy="430" r="85"/>
    <circle cx="1420" cy="450" r="70"/>
    <circle cx="1110" cy="450" r="65"/>
  </g>
  <g transform="translate(730 110)">
    <circle cx="70" cy="50" r="42" fill="#2a1911"/>
    <rect x="35" y="92" width="85" height="190" rx="28" fill="#0b0c0b"/>
    <rect x="22" y="118" width="26" height="125" rx="12" fill="#24160f"/>
    <rect x="110" y="115" width="28" height="130" rx="12" fill="#24160f"/>
    <rect x="42" y="280" width="32" height="160" rx="15" fill="#101010"/>
    <rect x="93" y="280" width="32" height="160" rx="15" fill="#101010"/>
    <text x="78" y="180" text-anchor="middle" font-family="Arial Black" font-size="18" fill="#7fbd33">MORTON</text>
  </g>
  <g transform="translate(1110 125)">
    <circle cx="70" cy="50" r="38" fill="#2b1712"/>
    <rect x="30" y="88" width="82" height="180" rx="28" fill="#0b0c0b"/>
    <rect x="20" y="112" width="24" height="124" rx="12" fill="#24160f"/>
    <rect x="105" y="112" width="25" height="130" rx="12" fill="#24160f"/>
    <rect x="38" y="265" width="30" height="150" rx="14" fill="#101010"/>
    <rect x="84" y="265" width="30" height="150" rx="14" fill="#101010"/>
    <text x="72" y="174" text-anchor="middle" font-family="Arial Black" font-size="15" fill="#7fbd33">MORTON</text>
  </g>
  <g transform="translate(495 360)" stroke="#121212" stroke-width="18" fill="none" stroke-linecap="round">
    <rect x="0" y="80" width="240" height="110" rx="18" fill="#101010"/>
    <circle cx="40" cy="200" r="36" fill="#050505"/>
    <circle cx="200" cy="200" r="36" fill="#050505"/>
    <path d="M190 80 L315 -110"/>
  </g>
  <g transform="translate(1220 290)" stroke="#171717" stroke-width="12" stroke-linecap="round">
    <path d="M0 0 L-120 270"/>
    <path d="M-148 292 q40 -30 85 0"/>
  </g>
  <rect width="1600" height="720" fill="url(#vignette)"/>
</svg>