<svg xmlns="http://www.w3.org/2000/svg" viewBox="0 0 520 160" role="img" aria-label="Morton Lawn Co logo">
  <defs>
    <linearGradient id="g" x1="0" x2="1" y1="0" y2="1">
      <stop offset="0" stop-color="#8cc63f"/>
      <stop offset="1" stop-color="#4d8f17"/>
    </linearGradient>
  </defs>
  <rect width="520" height="160" fill="none"/>
  <g transform="translate(20 20)" fill="url(#g)">
    <path d="M28 112C36 70 52 35 73 5c-4 40-6 75-3 107H28Z"/>
    <path d="M76 112C83 66 98 30 119 0c0 42-2 80 5 112H76Z"/>
    <path d="M124 112c8-39 28-72 58-96-14 34-21 66-20 96h-38Z"/>
    <path d="M10 112c2-30 11-55 27-75-4 28-1 53 8 75H10Z"/>
    <path d="M170 112c7-28 22-51 45-69-7 27-8 50-2 69h-43Z"/>
  </g>
  <text x="260" y="72" text-anchor="middle" font-family="Impact, 'Arial Narrow', sans-serif" font-size="58" fill="#f7f7f3" letter-spacing="4">MORTON</text>
  <text x="260" y="123" text-anchor="middle" font-family="Impact, 'Arial Narrow', sans-serif" font-size="34" fill="#7fbd33" letter-spacing="3">— LAWN CO —</text>
</svg>